<?xml version="1.0" standalone="no"?><!DOCTYPE svg PUBLIC "-//W3C//DTD SVG 1.1//EN" "http://www.w3.org/Graphics/SVG/1.1/DTD/svg11.dtd"><svg t="1509670433775" class="icon" style="" viewBox="0 0 1024 1024" version="1.1" xmlns="http://www.w3.org/2000/svg" p-id="3705" xmlns:xlink="http://www.w3.org/1999/xlink" width="200" height="200"><defs><style type="text/css"></style></defs><path d="M207.428571 877.714286l52-52-134.285714-134.285714-52 52 0 61.142857 73.142857 0 0 73.142857 61.142857 0zM506.285714 347.428571q0-12.571429-12.571429-12.571429-5.714286 0-9.714286 4l-309.714286 309.714286q-4 4-4 9.714286 0 12.571429 12.571429 12.571429 5.714286 0 9.714286-4l309.714286-309.714286q4-4 4-9.714286zM475.428571 237.714286l237.714286 237.714286-475.428571 475.428571-237.714286 0 0-237.714286zM865.714286 292.571429q0 30.285714-21.142857 51.428571l-94.857143 94.857143-237.714286-237.714286 94.857143-94.285714q20.571429-21.714286 51.428571-21.714286 30.285714 0 52 21.714286l134.285714 133.714286q21.142857 22.285714 21.142857 52z" p-id="3706"></path></svg>